<svg xmlns="http://www.w3.org/2000/svg" width="181" height="22">
  <g>
    <title>Coureon-Logo</title>
  </g>
  <g data-width="181" data-height="22">
	<path d="M43.533,15.565c0.363,0.156,0.468,0.363,0.312,0.727C42.132,20.08,38.449,22,34.09,22
	c-6.07,0-10.792-3.788-10.792-11C23.297,3.788,28.019,0,34.09,0c4.618,0,8.354,2.128,9.961,6.33c0.155,0.26,0,0.624-0.363,0.675
	l-2.283,0.779c-0.26,0.155-0.571-0.104-0.726-0.364c-1.038-2.49-3.32-3.995-6.59-3.995c-4.565,0-7.16,2.957-7.16,7.575
	s2.595,7.575,7.16,7.575c3.113,0,5.396-1.349,6.486-3.684c0.156-0.363,0.363-0.467,0.726-0.312L43.533,15.565z" class="coureon-logo-text"/>
	<path d="M176.305,10.377c0-5.552-3.684-6.952-6.432-6.952c-2.751,0-6.436,1.4-6.436,6.952v10.429
	c0,0.364-0.207,0.571-0.57,0.571h-2.49c-0.362,0-0.569-0.207-0.569-0.571V10.377C159.808,3.632,164.061,0,169.871,0
	c5.812,0,10.066,3.632,10.066,10.377v10.429c0,0.364-0.207,0.571-0.57,0.571h-2.49c-0.363,0-0.572-0.207-0.572-0.571V10.377
	L176.305,10.377z" class="coureon-logo-text"/>
	<path d="M12.721,1.217c-0.011-0.021-0.026-0.037-0.049-0.063c-0.016-0.026-0.036-0.051-0.056-0.078
	c-0.093-0.108-0.184-0.188-0.283-0.245c-0.098-0.059-0.211-0.097-0.353-0.122c-0.034-0.005-0.068-0.01-0.108-0.016
	c-0.012,0-0.062-0.007-0.076-0.007H1.074c-0.027,0-0.053,0.004-0.08,0.009C0.955,0.699,0.922,0.702,0.892,0.708
	C0.75,0.732,0.637,0.772,0.538,0.829C0.405,0.904,0.313,1.006,0.25,1.082C0.227,1.111,0.205,1.139,0.198,1.151
	c-0.242,0.346-0.262,0.784-0.054,1.144l5.049,8.748l-5.049,8.746c-0.208,0.359-0.189,0.799,0.043,1.127
	c0.016,0.027,0.036,0.056,0.067,0.095c0.058,0.068,0.149,0.172,0.309,0.257c0.082,0.044,0.158,0.076,0.233,0.097
	c0.091,0.025,0.185,0.036,0.277,0.036h10.721c0.382,0,0.739-0.204,0.931-0.537l5.357-9.281c0.191-0.332,0.191-0.744,0.001-1.074
	L12.721,1.217z M2.932,2.832h7.005L6.434,8.895L2.932,2.832z M11.176,19.253H2.932l8.864-15.348l4.12,7.137L11.176,19.253z" class="coureon-logo-icon"/>
	<path d="M57.64,0c-6.071,0-10.792,3.788-10.792,11s4.72,11,10.792,11c6.07,0,10.792-3.788,10.792-11S63.71,0,57.64,0
	z M57.64,18.575c-4.566,0-7.16-2.957-7.16-7.575s2.593-7.575,7.16-7.575S64.8,6.382,64.8,11S62.206,18.575,57.64,18.575z
	 M91.676,0.622h-2.491c-0.363,0-0.571,0.208-0.571,0.571v10.429c0,5.552-3.684,6.953-6.434,6.953c-2.75,0-6.434-1.401-6.434-6.953
	V1.193c0-0.363-0.208-0.571-0.571-0.571h-2.491c-0.363,0-0.57,0.208-0.57,0.571v10.429C72.115,18.367,76.37,22,82.18,22
	c5.812,0,10.065-3.633,10.065-10.378V1.193C92.245,0.83,92.039,0.622,91.676,0.622z M108.272,0.675
	c-1.192-0.312-2.439-0.467-3.633-0.467c-4.41,0-7.939,2.438-7.939,8.042v12.556c0,0.364,0.209,0.571,0.573,0.571h2.49
	c0.363,0,0.569-0.207,0.569-0.571V8.094c0-3.269,2.23-4.462,4.67-4.462c0.778,0,1.713,0.156,2.49,0.363
	c0.363,0.053,0.623-0.052,0.674-0.415l0.52-2.179C108.79,1.038,108.636,0.83,108.272,0.675z M120.521,0
	c-6.07,0-10.79,3.788-10.79,11c0,3.385,1.374,6.016,3.307,7.855c1.915,1.943,4.405,3.017,7.032,3.132
	c0.152,0.008,0.303,0.013,0.451,0.013c0.016,0,0.029-0.001,0.043-0.002c1.105-0.001,2.227-0.164,3.334-0.509
	c3.445-1.07,5.376-2.979,6.857-5.669c0.127-0.306-0.057-0.577-0.35-0.656l-2.344-0.464c-0.393-0.051-0.678,0.085-0.855,0.405
	c-1.006,1.333-2.352,2.54-4.222,3.114c-0.069,0.021-0.136,0.044-0.206,0.062c-0.176,0.046-0.352,0.084-0.527,0.118
	c-0.055,0.012-0.109,0.025-0.164,0.035c-0.139,0.024-0.277,0.04-0.416,0.06c-0.121,0.016-0.236,0.034-0.357,0.045
	c-0.059,0.005-0.117,0.006-0.176,0.011c-0.199,0.013-0.398,0.024-0.6,0.024c-0.027,0-0.053-0.002-0.078-0.002
	c-0.203-0.001-0.402-0.011-0.598-0.023c-2.681-0.216-4.957-1.766-6.047-4.467c-0.261-0.788-0.42-1.661-0.455-2.617h17.383
	c0.362,0,0.57-0.207,0.57-0.57C131.313,3.788,126.591,0,120.521,0z M113.62,8.51c0.777-3.113,3.166-5.085,6.902-5.085
	c3.734,0,6.018,1.972,6.848,5.085H113.62z M145.237,0c-6.07,0-10.791,3.788-10.791,11s4.721,11,10.791,11
	c6.071,0,10.793-3.788,10.793-11S151.309,0,145.237,0z M145.237,18.575c-4.564,0-7.158-2.957-7.158-7.575s2.594-7.575,7.158-7.575
	c4.565,0,7.162,2.957,7.162,7.575S149.803,18.575,145.237,18.575z" class="coureon-logo-text"/>
  </g>
</svg>