<svg xmlns="http://www.w3.org/2000/svg" viewBox="0 0 236 60"><path d="M69.3 51.1c-.1-.3-.2-.5-.3-.7-.1-.2-.3-.4-.5-.6-.2-.2-.5-.3-.7-.4-.3-.1-.6-.2-1-.2-.6 0-1.1.1-1.5.4-.4.3-.5.7-.6 1.3 0 .3.1.6.3.8.2.2.4.4.7.6.3.2.6.3 1 .5.4.1.7.3 1.1.4.4.1.8.3 1.1.5.4.2.7.4 1 .6.3.2.5.5.7.8.2.3.3.7.3 1.1 0 .4-.1.8-.2 1.2-.1.4-.3.7-.6 1-.3.3-.7.5-1.1.7-.5.2-1 .3-1.7.3-.6 0-1.1-.1-1.5-.3-.4-.2-.8-.4-1.1-.7-.3-.3-.6-.6-.8-.9-.2-.3-.4-.7-.5-1l1.1-.4c.1.3.2.6.4.8.2.3.4.5.6.7.2.2.5.4.8.5.3.1.7.2 1.1.2.8 0 1.4-.2 1.8-.6.4-.4.6-.8.6-1.4 0-.5-.2-.8-.5-1.1-.3-.3-.7-.5-1.1-.7-.5-.2-.9-.4-1.5-.6l-1.5-.6c-.5-.2-.8-.6-1.1-.9-.3-.4-.5-.8-.5-1.4 0-.4.1-.8.2-1.1.2-.3.4-.6.7-.9.3-.3.6-.5 1-.6.4-.1.9-.2 1.3-.2.9 0 1.6.2 2.2.7.6.4 1.1 1.1 1.4 2l-1.1.2zm9.2 4.2c0 .6-.1 1.1-.2 1.6s-.3.9-.6 1.3-.6.7-1 .9c-.4.2-.9.3-1.4.3-.5 0-1-.1-1.4-.3-.4-.2-.7-.5-1-.9-.3-.4-.5-.8-.6-1.3-.1-.5-.2-1-.2-1.6s.1-1.1.2-1.6.3-.9.6-1.3.6-.7 1-.9c.4-.2.9-.3 1.4-.3.5 0 1 .1 1.4.3.4.2.7.5 1 .9.3.4.5.8.6 1.3.1.5.2 1.1.2 1.6zm-1.1 0c0-1-.2-1.8-.6-2.3-.4-.5-.9-.8-1.6-.8-.7 0-1.2.3-1.6.8-.4.5-.6 1.3-.6 2.3 0 1 .2 1.8.6 2.3.4.5.9.8 1.6.8.7 0 1.2-.3 1.6-.8.4-.5.6-1.3.6-2.3zm6.9-7h1.1v7l3.2-4h1.3l-2.3 2.9 2.6 5h-1.3l-2.1-4-1.4 1.7v2.4h-1.1v-11zm6.9 4.6c.3-.5.6-.8 1.1-1.2.5-.3 1.1-.5 1.8-.5.3 0 .7 0 1 .1.3.1.6.2.9.4.3.2.5.4.6.7.2.3.2.7.2 1.1v4c0 .4 0 .8.1 1 0 .2.1.5.1.7h-1.1l-.1-1.1c-.3.3-.6.6-1.1.8-.4.3-.9.4-1.5.4-.3 0-.6 0-.9-.1-.3-.1-.5-.2-.7-.4-.2-.2-.4-.4-.5-.7-.1-.3-.2-.6-.2-.9 0-.4.1-.8.3-1.1.2-.3.4-.6.8-.9.4-.3.9-.5 1.5-.7.6-.2 1.4-.4 2.2-.5v-.4c0-.5-.2-.9-.5-1.1-.3-.2-.7-.3-1.2-.3-.3 0-.6 0-.8.1l-.6.3c-.2.1-.3.3-.4.4-.1.1-.2.3-.2.4l-.8-.5zm4.5 2.1c-2.5.4-3.7 1.2-3.7 2.2 0 .2 0 .3.1.5s.2.3.3.4c.1.1.3.2.4.2.2.1.3.1.5.1s.4 0 .6-.1l.6-.3c.2-.1.4-.3.6-.4.2-.2.4-.3.5-.5V55zm7.8 4.2v-1.1c-.3.4-.7.6-1.1.9-.4.2-.8.3-1.3.3-.3 0-.6 0-.8-.1-.3-.1-.5-.2-.7-.4-.2-.2-.4-.4-.5-.7-.1-.3-.2-.6-.2-1.1v-5.7h1.1V57c0 .5.1.9.3 1.1.2.2.5.3.9.3.2 0 .4 0 .6-.1l.6-.3c.2-.1.4-.2.6-.4.2-.1.3-.3.4-.4v-5.9h1.1v7.8h-1zm3.9 0v-6.9H106v-.9h1.3v-.9c0-.5 0-.8.1-1.1.1-.3.2-.5.4-.7.2-.2.4-.3.6-.4.2-.1.5-.1.8-.1h.5c.2 0 .3 0 .5.1v1c-.1 0-.3 0-.4-.1h-.4c-.4 0-.6.1-.8.2-.2.2-.2.4-.2.9v1.1h1.7v.9h-1.7v6.9h-1zm4.5-7.8v-2.6h1.1v2.6h1.8v.9H113v5.6c0 .2.1.3.2.4.1.1.4.1.7.1h.5c.2 0 .3 0 .5-.1v.9c-.1 0-.3.1-.5.1h-.8c-.6 0-1-.1-1.3-.3-.3-.2-.4-.5-.4-1v-5.8h-1.3v-.9h1.3zm8.7 7.8v-7.8h1.1v1l.1-.1c.3-.4.7-.7 1.1-.8.4-.2.8-.3 1.2-.3.5 0 .9.1 1.3.3.3.2.6.5.7.9.4-.4.7-.7 1.2-.9s.9-.3 1.3-.3c.3 0 .5 0 .8.1.3.1.5.2.7.4.2.2.4.4.5.7.1.3.2.7.2 1.2v5.6h-1.1v-5.6c0-.5-.1-.9-.3-1.1-.2-.2-.5-.3-.9-.3-.2 0-.5 0-.7.1l-.6.3c-.2.1-.3.2-.5.4-.2.1-.3.3-.5.4v5.9h-1.1v-5.6c0-.5-.1-.9-.3-1.1-.2-.2-.5-.3-.9-.3-.2 0-.5 0-.7.1l-.6.3c-.2.1-.3.2-.5.4-.2.1-.3.3-.5.4v5.9h-1zm11.9-6.3c.3-.5.6-.8 1.1-1.2.5-.3 1.1-.5 1.8-.5.3 0 .7 0 1 .1.3.1.6.2.9.4.3.2.5.4.6.7.2.3.2.7.2 1.1v4c0 .4 0 .8.1 1 0 .2.1.5.1.7h-1.1l-.1-1.1c-.3.3-.6.6-1.1.8-.4.3-.9.4-1.5.4-.3 0-.6 0-.9-.1-.3-.1-.5-.2-.7-.4-.2-.2-.4-.4-.5-.7-.1-.3-.2-.6-.2-.9 0-.4.1-.8.3-1.1.2-.3.4-.6.8-.9.4-.3.9-.5 1.5-.7.6-.2 1.4-.4 2.2-.5v-.4c0-.5-.2-.9-.5-1.1-.3-.2-.7-.3-1.2-.3-.3 0-.6 0-.8.1l-.6.3c-.2.1-.3.3-.4.4-.1.1-.2.3-.2.4l-.8-.5zm4.6 2.1c-2.5.4-3.7 1.2-3.7 2.2 0 .2 0 .3.1.5s.2.3.3.4c.1.1.3.2.4.2.2.1.3.1.5.1s.4 0 .6-.1l.6-.3c.2-.1.4-.3.6-.4.2-.2.4-.3.5-.5V55zm4.2-3.6v1.1c.3-.4.7-.6 1.1-.9.4-.2.8-.3 1.3-.3.3 0 .6 0 .8.1.3.1.5.2.7.4.2.2.4.4.5.7.1.3.2.6.2 1.1v5.7h-1.1v-5.7c0-.5-.1-.9-.3-1.1-.2-.2-.5-.3-.9-.3-.2 0-.4 0-.6.1l-.6.3c-.2.1-.4.2-.6.4-.2.1-.3.3-.4.4v5.9h-1.1v-7.8h1zm11.6-3.1h4c.5 0 .9.1 1.3.2s.7.3 1 .6c.3.2.5.5.6.9.1.3.2.7.2 1 0 .6-.1 1.1-.4 1.5-.3.4-.8.7-1.4 1 .3.1.6.2.8.4.3.2.5.4.7.6.2.2.3.5.4.8.1.3.2.6.2 1s-.1.8-.2 1.1c-.1.4-.4.7-.7.9-.3.3-.7.5-1.2.6-.5.2-1.1.2-1.9.2h-3.4V48.3zm1.2 4.7h2.1c.5 0 .8-.1 1.2-.2.3-.1.6-.2.8-.4.2-.2.4-.4.4-.6.1-.2.1-.4.1-.7 0-1.2-.7-1.8-2.1-1.8H154V53zm0 5.2h2.3c.9 0 1.6-.2 2-.5.4-.3.7-.8.7-1.5s-.3-1.2-.8-1.6c-.5-.4-1.2-.6-2.1-.6h-2.1v4.2zm8-6.8h1.1V53c.2-.3.3-.5.5-.7.2-.2.3-.4.5-.5.2-.1.4-.2.7-.3s.5-.1.9-.1v1.1c-.7 0-1.2.2-1.6.7-.4.4-.7 1-1 1.9v4.3h-1.1v-8zm6.3-3.2v1.3h-1.1v-1.3h1.1zm-1.1 3.2h1.1v7.8h-1.1v-7.8zm5-3.1v10.9h-1.1V48.3h1.1zm3.9 0v10.9h-1.1V48.3h1.1zm8.3 9.3c-.1.2-.3.4-.4.7l-.6.6c-.2.2-.5.3-.8.4-.3.1-.7.2-1.1.2-.4 0-.9-.1-1.3-.2-.4-.2-.8-.4-1.1-.7-.3-.3-.6-.8-.8-1.3-.2-.5-.3-1.1-.3-1.8 0-.6.1-1.2.2-1.7.2-.5.4-.9.6-1.3.3-.4.6-.6 1-.8.4-.2.8-.3 1.3-.3.4 0 .8.1 1.1.2.4.1.7.3 1 .6.3.3.5.7.6 1.1.2.5.2 1 .2 1.6v.7H179c0 .4.1.8.2 1.2.1.4.3.7.5.9.2.3.5.5.7.6.3.1.6.2.9.2.5 0 .9-.1 1.3-.4.4-.2.7-.6.9-1l1 .5zm-1.3-3c0-.7-.2-1.3-.5-1.8-.3-.4-.8-.7-1.4-.7-.7 0-1.2.2-1.5.7-.3.4-.5 1-.6 1.8h4zm3.9-3.2v1.1c.3-.4.7-.6 1.1-.9.4-.2.8-.3 1.3-.3.3 0 .6 0 .8.1.3.1.5.2.7.4.2.2.4.4.5.7.1.3.2.6.2 1.1v5.7h-1.1v-5.7c0-.5-.1-.9-.3-1.1s-.5-.3-.9-.3c-.2 0-.4 0-.6.1l-.6.3c-.2.1-.4.2-.6.4-.2.1-.3.3-.4.4v5.9H186v-7.8h1.1zm12.4-3.1v4.1c.3-.4.7-.6 1.1-.9s.8-.3 1.3-.3c.3 0 .6 0 .8.1.3.1.5.2.7.4.2.2.4.4.5.7.1.3.2.6.2 1.1v5.7H203v-5.7c0-.5-.1-.9-.3-1.1s-.5-.3-.9-.3c-.2 0-.4 0-.6.1l-.6.3c-.2.1-.4.2-.6.4-.2.1-.3.3-.4.4v5.9h-1.1V48.3h1zm12.7 9.3c-.1.2-.3.4-.4.7l-.6.6c-.2.2-.5.3-.8.4-.3.1-.7.2-1.1.2-.4 0-.9-.1-1.3-.2-.4-.2-.8-.4-1.1-.7-.3-.3-.6-.8-.8-1.3-.2-.5-.3-1.1-.3-1.8 0-.6.1-1.2.2-1.7.2-.5.4-.9.6-1.3.3-.4.6-.6 1-.8.4-.2.8-.3 1.3-.3.4 0 .8.1 1.1.2s.7.3 1 .6c.3.3.5.7.6 1.1.2.5.2 1 .2 1.6v.7h-5.1c0 .4.1.8.2 1.2.1.4.3.7.5.9.2.3.5.5.7.6.3.1.6.2.9.2.5 0 .9-.1 1.3-.4.4-.2.7-.6.9-1l1 .5zm-1.3-3c0-.7-.2-1.3-.5-1.8-.3-.4-.8-.7-1.4-.7-.7 0-1.2.2-1.5.7-.3.4-.5 1-.6 1.8h4zm7.5 4.6v-1.1c-.3.4-.7.6-1.1.9-.4.2-.8.3-1.3.3-.3 0-.6 0-.8-.1-.3-.1-.5-.2-.7-.4-.2-.2-.4-.4-.5-.7-.1-.3-.2-.6-.2-1.1v-5.7h1.1V57c0 .5.1.9.3 1.1.2.2.5.3.9.3.2 0 .4 0 .6-.1l.6-.3c.2-.1.4-.2.6-.4.2-.1.3-.3.4-.4v-5.9h1.1v7.8h-1zm3.7-7.8v-2.6h1.1v2.6h1.8v.9h-1.8v5.6c0 .2.1.3.2.4.1.1.4.1.7.1h.5c.2 0 .3 0 .5-.1v.9c-.1 0-.3.1-.5.1h-.8c-.6 0-1-.1-1.3-.3-.3-.2-.4-.5-.4-1v-5.8h-1.3v-.9h1.3zm10.2 6.2c-.1.2-.3.4-.4.7l-.6.6c-.2.2-.5.3-.8.4-.3.1-.7.2-1.1.2-.4 0-.9-.1-1.3-.2-.4-.2-.8-.4-1.1-.7-.3-.3-.6-.8-.8-1.3-.2-.5-.3-1.1-.3-1.8 0-.6.1-1.2.2-1.7.2-.5.4-.9.6-1.3.3-.4.6-.6 1-.8.4-.2.8-.3 1.3-.3.4 0 .8.1 1.1.2s.7.3 1 .6c.3.3.5.7.6 1.1.2.5.2 1 .2 1.6v.7h-5.1c0 .4.1.8.2 1.2.1.4.3.7.5.9.2.3.5.5.7.6.3.1.6.2.9.2.5 0 .9-.1 1.3-.4.4-.2.7-.6.9-1l1 .5zm-1.3-3c0-.7-.2-1.3-.5-1.8-.3-.4-.8-.7-1.4-.7-.7 0-1.2.2-1.5.7-.3.4-.5 1-.6 1.8h4z" fill="#808080"/><path d="M78.7 16.5h-.1l-4.3 21.7h-2l-4.5-21.7h-.1v21.7h-3.6V8.3h5.1l4.1 19.8 3.8-19.8h5.5v29.9h-3.9zm8.7-8.2h4v29.9h-4zm8.4 23.5v-3.9h3.8v4c0 2.1 1 3.4 3.3 3.4 2.1 0 3.1-1.4 3.1-3.4v-1.4c0-2.1-.8-2.7-2.7-4.5l-3.1-3.1c-2.9-2.9-4.3-4.1-4.3-7.5v-1.1c0-3.7 2.3-6.4 6.8-6.4 4.8 0 6.9 2.3 6.9 6.6v2.9h-3.7v-3.1c0-2.2-1.1-3.2-3.1-3.2-1.9 0-3.1 1.1-3.1 3.1v.9c0 2 1.1 2.6 2.9 4.3l3.2 3.2c2.8 2.8 4.2 4 4.2 7.4v1.6c0 3.9-2.2 6.8-7.1 6.8-5 .1-7.1-2.7-7.1-6.6m16.4-23.5h13.4v3.3H121v26.6h-4.1V11.6h-4.7zm16.6 0h11.9v3.3h-7.9v9.7h5.7v3.3h-5.7v10.3h7.9v3.3h-11.9zm19.5 15.5v14.3h-4V8.3h6.9c4.8 0 6.8 2.4 6.8 6.4v3.7c0 3.6-1.5 5.6-5.2 6.1l6.1 13.7h-4.3l-6.3-14.4zm0-12.2v10.2h2.4c2.2 0 3.2-1.1 3.2-3.1v-4.2c0-2-1-3-3.2-3h-2.4zm21.6 20.2v-3.9h3.8v4c0 2.1 1 3.4 3.3 3.4 2.1 0 3.1-1.4 3.1-3.4v-1.4c0-2.1-.8-2.7-2.7-4.5l-3.1-3.1c-2.9-2.9-4.3-4.1-4.3-7.5v-1.1c0-3.7 2.3-6.4 6.8-6.4 4.8 0 6.8 2.3 6.8 6.6v2.9H180v-3.1c0-2.2-1-3.2-3.1-3.2-1.9 0-3.1 1.1-3.1 3.1v.9c0 2 1.1 2.6 2.9 4.3l3.2 3.2c2.8 2.8 4.2 4 4.2 7.4v1.6c0 3.9-2.2 6.8-7.1 6.8-5 .1-7.1-2.7-7.1-6.6m17.8-23.5h7c4.8 0 6.7 2.4 6.7 6.4v6.6c0 4-1.9 6.5-6.7 6.5h-3v10.3h-4V8.3zm4 3.3v13.2h2.6c2.2 0 3.2-1.1 3.2-3.1v-7c0-2-1-3-3.2-3h-2.6zm13.5-3.3h11.9v3.3h-7.9v9.7h5.7v3.3h-5.7v10.3h7.9v3.3h-11.9zm20 14l-4.7-14h4.1l3.5 10.7 3.5-10.7h3.9l-4.8 14.2 5.3 15.7h-4.2l-4-12.3-3.9 12.3H220zM39.6 35.1c-4.2 0-7.8-1.3-10.6-3.8-1.6-1.5-3.1-3.1-4.4-4.5 0 0-.1 0-.1-.1-.6-.7-1.3-1-2.1-1s-1.5.3-2.1 1l-.1.1c-1.3 1.4-2.7 3-4.4 4.5-2.9 2.5-6.5 3.8-10.6 3.8-1.7 0-3.4-.2-5.2-.6v7.1c0 1.1.8 1.7 2 2 1.2.3 8.3 2.1 20.4 2.1s19.2-1.8 20.4-2.1c1.2-.3 2-.9 2-2v-7.1c-1.7.4-3.5.6-5.2.6z"/><path d="M31 16.7c-2.1 1.4-4.3 3.4-4.3 4.6v.5c.1.7.3 1.3 1.1 2.8v.2c1.4 2.4 3.4 4.6 6 6.6 1.8 1.5 4.1 2 6.9 2 1.3 0 2.6-.2 4.1-.5v-19c-4.6-.7-9.1.3-13.8 2.8zM0 32.8c1.5.3 2.9.5 4.1.5 2.7 0 5.1-.5 6.9-2 2.5-2 4.5-4.2 6-6.6v-.2c.9-1.5 1.1-2.1 1.1-2.8v-.5c0-1.2-2.1-3.2-4.3-4.6-4.6-2.4-9.1-3.4-13.8-2.8v19zm4.4-21.5c5.6 0 11.3 1.6 15.6 4.3l.4.2c.7.4 1.5.9 2.1.9.5 0 1.4-.4 2.1-.9l.4-.2c4.4-2.7 10.1-4.3 15.6-4.3 1.7 0 4.4.2 4.4.2V4.8c0-1.1-.9-1.7-2-2C41.8 2.4 34.7.7 22.6.7S3.2 2.4 2 2.8c-1.2.4-2 .9-2 2v6.7s2.7-.2 4.4-.2z"/></svg>
